<?xml version="1.0" standalone="no"?>
<!DOCTYPE svg PUBLIC "-//W3C//DTD SVG 20010904//EN"
 "http://www.w3.org/TR/2001/REC-SVG-20010904/DTD/svg10.dtd">
<svg version="1.0" xmlns="http://www.w3.org/2000/svg"
 width="2048.000000pt" height="2048.000000pt" viewBox="0 0 2048.000000 2048.000000"
 preserveAspectRatio="xMidYMid meet">

<g transform="translate(0.000000,2048.000000) scale(0.100000,-0.100000)"
fill="#000000" stroke="none">
<path d="M9945 18859 c-1379 -52 -3334 -422 -4320 -817 -523 -210 -911 -431
-1176 -671 -265 -241 -454 -576 -543 -961 -17 -75 -145 -1034 -366 -2736
l-340 -2622 0 -3631 0 -3631 590 0 590 0 0 -622 c0 -511 3 -640 15 -717 53
-328 238 -585 518 -724 490 -243 1092 -82 1353 362 48 83 94 201 120 312 15
65 18 150 21 731 l4 658 3830 0 3829 0 0 -612 c0 -653 4 -723 51 -873 108
-350 380 -594 747 -669 298 -62 616 7 850 184 196 148 324 367 367 631 12 77
15 206 15 717 l0 622 590 0 590 0 0 3631 0 3632 -345 2651 c-278 2141 -350
2672 -374 2762 -163 615 -513 1005 -1216 1356 -365 183 -694 310 -1125 434
-981 284 -2240 505 -3325 584 -149 11 -647 31 -705 28 -19 0 -129 -5 -245 -9z
m3265 -1330 c216 -34 350 -195 350 -419 0 -153 -63 -280 -177 -357 -119 -79
155 -73 -3143 -73 -3302 0 -3025 -7 -3143 74 -115 78 -177 204 -177 356 0 219
134 384 340 419 81 13 5867 14 5950 0z m1615 -1719 c377 -43 568 -225 655
-625 29 -138 560 -3946 567 -4070 17 -323 -128 -544 -394 -600 -103 -22
-10723 -22 -10826 0 -266 56 -411 277 -394 600 6 105 534 3911 562 4050 23
112 76 263 116 332 50 84 151 182 234 225 83 43 191 75 296 87 109 12 9072 13
9184 1z m-9190 -7825 c327 -83 587 -329 688 -651 131 -414 -28 -859 -394
-1104 -271 -181 -639 -210 -938 -74 -87 39 -211 127 -285 200 -257 257 -348
632 -239 979 49 154 124 277 242 396 242 243 592 339 926 254z m9690 0 c327
-83 587 -329 688 -651 109 -347 16 -722 -243 -981 -122 -121 -247 -195 -427
-250 -81 -24 -102 -27 -258 -27 -157 0 -177 2 -260 28 -651 198 -917 931 -542
1491 22 33 75 95 118 137 245 244 590 338 924 253z"/>
</g>
</svg>
